<?xml version="1.0"?>
<svg xmlns="http://www.w3.org/2000/svg" id="Capa_1" enable-background="new 0 0 512 512" height="512px" viewBox="0 0 512 512" width="512px"><g><path d="m456.834 96.399h-57.3v-41.233c0-30.418-24.748-55.166-55.167-55.166h-176.733c-30.419 0-55.167 24.748-55.167 55.166v41.233h-57.3c-30.419 0-55.167 24.748-55.167 55.167v136.566c0 8.284 6.716 15 15 15h1.067v153.7c0 30.419 24.747 55.167 55.166 55.167h369.533c30.419 0 55.167-24.748 55.167-55.167v-153.7h1.067c8.284 0 15-6.716 15-15v-136.566c0-30.419-24.748-55.167-55.166-55.167zm-314.367-41.233c0-13.876 11.29-25.166 25.167-25.166h176.733c13.877 0 25.167 11.29 25.167 25.166v41.233h-227.067zm-112.467 96.4c0-13.877 11.29-25.167 25.167-25.167h401.667c13.876 0 25.166 11.29 25.166 25.167v121.566h-178.866v-33.2c0-8.284-6.716-15-15-15h-64.267c-8.284 0-15 6.716-15 15v33.2h-178.867zm208.867 136.663c0-.033.005-.064.005-.097s-.005-.064-.005-.097v-33.104h34.267v66.4h-34.267zm227.067 168.604c0 13.877-11.29 25.167-25.167 25.167h-369.534c-13.876 0-25.166-11.29-25.166-25.167v-153.7h162.8v33.2c0 8.284 6.716 15 15 15h64.267c8.284 0 15-6.716 15-15v-33.2h162.8z" data-original="#000000" class="active-path" data-old_color="#000000" fill="#FFFFFF"/></g> </svg>
